<svg xmlns="http://www.w3.org/2000/svg" viewBox="0 0 64 64" role="img" aria-label="favicon">
  <defs>
    <linearGradient id="g" x1="0" y1="0" x2="1" y2="1">
      <stop offset="0" stop-color="#7c3aed"/>
      <stop offset="1" stop-color="#38bdf8"/>
    </linearGradient>
  </defs>
  <rect x="6" y="6" width="52" height="52" rx="16" fill="url(#g)"/>
  <path d="M22 40c2.8 3.4 6.5 5 11 5 7.2 0 12-4 12-10.2C45 28.4 40.3 24 33 24c-3.9 0-7.4 1.4-10 4l3.2 3.2c1.7-1.7 3.9-2.6 6.8-2.6 4.7 0 7.6 2.4 7.6 6.1 0 3.6-2.7 6-7.4 6-2.7 0-5-.8-6.9-2.4L22 40z" fill="rgba(255,255,255,0.9)"/>
</svg>

